Coordinates
version=1
nRows=27
nColumns=38
inDegrees=no

Units are S.I. units (second, meters, Newtons, ...)
If the header above contains a line with 'inDegrees', this indicates whether rotational values are in degrees (yes) or radians (no).

endheader
time	pelvis_tilt	pelvis_list	pelvis_rotation	pelvis_tx	pelvis_ty	pelvis_tz	hip_flexion_r	hip_adduction_r	hip_rotation_r	knee_angle_r	ankle_angle_r	subtalar_angle_r	mtp_angle_r	hip_flexion_l	hip_adduction_l	hip_rotation_l	knee_angle_l	ankle_angle_l	subtalar_angle_l	mtp_angle_l	lumbar_extension	lumbar_bending	lumbar_rotation	arm_flex_r	arm_add_r	arm_rot_r	elbow_flex_r	pro_sup_r	wrist_flex_r	wrist_dev_r	arm_flex_l	arm_add_l	arm_rot_l	elbow_flex_l	pro_sup_l	wrist_flex_l	wrist_dev_l
1.91	2.62806	1.54213	-1.10529	0.615036	-0.343773	1.01998	0.312464	-0.0900524	0.100275	1.18573	-0.258132	0	0	-0.243074	0.00294922	-0.232946	0.109302	-0.280734	0	0	-0.0821849	-0.051171	-0.000322889	0.644572	-0.651517	0.888198	1.45591	1.5708	0	0	0.47287	-0.275817	0.728068	1.43517	1.5708	0	0
1.92	2.55122	1.54126	-1.0243	0.613774	-0.342497	1.01998	0.325086	-0.0860353	0.10162	1.1995	-0.257584	0	0	-0.244718	0.000779919	-0.231367	0.107106	-0.280364	0	0	-0.085811	-0.0467893	-0.00640598	0.651918	-0.6506	0.890806	1.45299	1.5708	0	0	0.476438	-0.274406	0.726084	1.43316	1.5708	0	0
1.93	2.46641	1.54069	-0.935786	0.612637	-0.341211	1.01996	0.337729	-0.0819752	0.10276	1.21012	-0.254151	0	0	-0.245879	-0.00141257	-0.22968	0.10454	-0.28135	0	0	-0.0892082	-0.0435304	-0.00831624	0.653361	-0.652535	0.886062	1.45317	1.5708	0	0	0.483784	-0.2715	0.729822	1.42914	1.5708	0	0
1.94	2.36235	1.54067	-0.828751	0.611703	-0.339911	1.01986	0.351107	-0.0778012	0.103775	1.21826	-0.246836	0	0	-0.246148	-0.00363195	-0.228083	0.10149	-0.2822	0	0	-0.0912862	-0.0405881	-0.00941963	0.654157	-0.653994	0.880744	1.45285	1.5708	0	0	0.491689	-0.269047	0.734551	1.42481	1.5708	0	0
1.95	2.27387	1.54044	-0.736978	0.610684	-0.338692	1.01982	0.363795	-0.0748369	0.103456	1.22324	-0.238635	0	0	-0.246542	-0.00533988	-0.225835	0.0984711	-0.282975	0	0	-0.0941864	-0.038045	-0.0109617	0.655733	-0.65533	0.875747	1.45226	1.5708	0	0	0.49983	-0.266435	0.738816	1.42052	1.5708	0	0
1.96	2.17425	1.54067	-0.63449	0.60974	-0.337488	1.01972	0.377179	-0.0723547	0.103003	1.22533	-0.225995	0	0	-0.246987	-0.00632075	-0.2216	0.0933677	-0.285741	0	0	-0.0961959	-0.0362221	-0.0107937	0.65598	-0.657444	0.869531	1.452	1.5708	0	0	0.509578	-0.263518	0.745607	1.41495	1.5708	0	0
1.97	2.08473	1.54032	-0.542684	0.608829	-0.336306	1.01964	0.389675	-0.0699064	0.10312	1.22386	-0.221939	0	0	-0.247703	-0.00738071	-0.219797	0.089039	-0.287111	0	0	-0.0980967	-0.0321625	-0.0137853	0.664418	-0.657069	0.873516	1.44848	1.5708	0	0	0.515193	-0.262144	0.74607	1.41113	1.5708	0	0
1.98	1.98795	1.53993	-0.443801	0.607954	-0.335101	1.01954	0.401992	-0.067713	0.103311	1.21914	-0.218496	0	0	-0.248222	-0.00832618	-0.218483	0.0844791	-0.288403	0	0	-0.0996245	-0.0281089	-0.0162439	0.672836	-0.656958	0.877424	1.44505	1.5708	0	0	0.521471	-0.260736	0.747284	1.40701	1.5708	0	0
1.99	1.88057	1.5393	-0.334354	0.607146	-0.333885	1.01941	0.414254	-0.0655987	0.103253	1.21144	-0.214648	0	0	-0.248456	-0.00941751	-0.217384	0.079739	-0.289779	0	0	-0.100841	-0.0241692	-0.0182948	0.681053	-0.656961	0.880872	1.44166	1.5708	0	0	0.527872	-0.25901	0.748307	1.40278	1.5708	0	0
2	1.76248	1.53826	-0.214437	0.606444	-0.332654	1.01926	0.426545	-0.0632505	0.103268	1.20069	-0.210443	0	0	-0.248412	-0.0107247	-0.216508	0.0746069	-0.291525	0	0	-0.101693	-0.0203979	-0.0198219	0.689067	-0.656995	0.883994	1.43827	1.5708	0	0	0.534598	-0.257223	0.749537	1.39844	1.5708	0	0
2.01	1.64431	1.53684	-0.0942556	0.605743	-0.331445	1.0191	0.438685	-0.0613152	0.10262	1.18707	-0.206539	0	0	-0.248021	-0.0120846	-0.215269	0.0692925	-0.293299	0	0	-0.102629	-0.0168472	-0.0214344	0.696973	-0.657038	0.886683	1.43512	1.5708	0	0	0.541815	-0.255486	0.751058	1.39416	1.5708	0	0
2.02	1.5282	1.53498	0.0239751	0.605069	-0.330244	1.0189	0.45068	-0.0595548	0.101906	1.1709	-0.203134	0	0	-0.247059	-0.0135594	-0.214252	0.0643539	-0.294882	0	0	-0.103666	-0.0133734	-0.0231268	0.704506	-0.657001	0.888521	1.43246	1.5708	0	0	0.54928	-0.253623	0.75239	1.38995	1.5708	0	0
2.03	1.41971	1.53268	0.134544	0.604453	-0.329043	1.01869	0.462403	-0.0580305	0.100955	1.15232	-0.200457	0	0	-0.245638	-0.0150844	-0.213811	0.059998	-0.296445	0	0	-0.10464	-0.0098656	-0.0246037	0.711988	-0.656875	0.890141	1.42986	1.5708	0	0	0.556757	-0.251833	0.753465	1.3858	1.5708	0	0
2.04	1.32363	1.52994	0.232812	0.603869	-0.327813	1.01846	0.473587	-0.0568895	0.0995129	1.1315	-0.198012	0	0	-0.244284	-0.0165302	-0.213067	0.0554493	-0.298068	0	0	-0.105518	-0.00609687	-0.0263266	0.720291	-0.656546	0.892736	1.42698	1.5708	0	0	0.564045	-0.250441	0.754175	1.38191	1.5708	0	0
2.05	1.24073	1.52706	0.317763	0.603411	-0.326569	1.01823	0.484317	-0.0559206	0.0983411	1.10915	-0.197789	0	0	-0.242731	-0.0179279	-0.213325	0.0518204	-0.297554	0	0	-0.106275	-0.00216808	-0.0269722	0.727326	-0.656713	0.893367	1.42487	1.5708	0	0	0.571631	-0.248582	0.755208	1.37735	1.5708	0	0
2.06	1.16658	1.52381	0.394157	0.60302	-0.325256	1.01796	0.494548	-0.0552872	0.0965293	1.08528	-0.194569	0	0	-0.242251	-0.0191092	-0.210152	0.0453126	-0.301254	0	0	-0.106203	0.00272482	-0.0303672	0.739597	-0.654668	0.901499	1.42003	1.5708	0	0	0.576795	-0.248633	0.753188	1.37426	1.5708	0	0
2.07	1.10384	1.52034	0.459205	0.602641	-0.323913	1.01767	0.50424	-0.0551114	0.0942885	1.06002	-0.193157	0	0	-0.241339	-0.0205516	-0.207696	0.0400666	-0.303142	0	0	-0.106676	0.00706248	-0.0324001	0.749396	-0.653784	0.906083	1.41677	1.5708	0	0	0.58326	-0.247812	0.752644	1.37065	1.5708	0	0
2.08	1.04417	1.51669	0.520949	0.602317	-0.322509	1.01732	0.513934	-0.0554028	0.0919608	1.03394	-0.192081	0	0	-0.240226	-0.021901	-0.20513	0.0348765	-0.305021	0	0	-0.106914	0.0110693	-0.0339181	0.75876	-0.653194	0.910264	1.41397	1.5708	0	0	0.590063	-0.246843	0.752537	1.36702	1.5708	0	0
2.09	0.983593	1.51287	0.583276	0.602069	-0.321025	1.0169	0.523925	-0.0560155	0.0896493	1.00751	-0.191048	0	0	-0.238956	-0.0230183	-0.202852	0.0294277	-0.306774	0	0	-0.106549	0.0144539	-0.0348669	0.767412	-0.652718	0.913817	1.41138	1.5708	0	0	0.597063	-0.245717	0.752862	1.36311	1.5708	0	0
2.1	0.929721	1.50903	0.639094	0.601829	-0.319488	1.01646	0.533514	-0.0571755	0.0864166	0.980475	-0.190709	0	0	-0.23786	-0.0239767	-0.200315	0.0237903	-0.308634	0	0	-0.1063	0.0175632	-0.0358446	0.775548	-0.652323	0.916416	1.4091	1.5708	0	0	0.604297	-0.244505	0.753293	1.35916	1.5708	0	0
2.11	0.878415	1.50498	0.692301	0.601678	-0.317884	1.01593	0.543087	-0.0584696	0.083054	0.953405	-0.190632	0	0	-0.236184	-0.0250025	-0.19902	0.0191789	-0.308524	0	0	-0.105807	0.0204331	-0.0366224	0.782787	-0.651881	0.917561	1.40732	1.5708	0	0	0.611482	-0.243414	0.753548	1.35566	1.5708	0	0
2.12	0.828751	1.50093	0.744055	0.601596	-0.316223	1.01534	0.552601	-0.0603879	0.0786936	0.926317	-0.190616	0	0	-0.23468	-0.0257091	-0.197008	0.0139412	-0.310098	0	0	-0.104882	0.0230481	-0.0377687	0.790446	-0.651073	0.919481	1.40523	1.5708	0	0	0.618781	-0.242945	0.754116	1.35228	1.5708	0	0
2.13	0.780123	1.49682	0.795003	0.601576	-0.314502	1.01472	0.562177	-0.0629464	0.0727876	0.899508	-0.190335	0	0	-0.232915	-0.0262355	-0.195108	0.0089315	-0.311613	0	0	-0.103443	0.0253793	-0.0391026	0.798074	-0.650038	0.921638	1.40293	1.5708	0	0	0.626378	-0.242734	0.755115	1.34862	1.5708	0	0
2.14	0.733689	1.49241	0.843584	0.601658	-0.312686	1.01402	0.572241	-0.0654209	0.065632	0.873969	-0.189863	0	0	-0.231001	-0.0267827	-0.194083	0.0039528	-0.31291	0	0	-0.101759	0.0274275	-0.0402513	0.804887	-0.648878	0.922715	1.40114	1.5708	0	0	0.633631	-0.242563	0.755545	1.34542	1.5708	0	0
2.15	0.691041	1.48796	0.888555	0.601776	-0.310771	1.0133	0.582194	-0.0680053	0.0570528	0.849449	-0.189477	0	0	-0.229079	-0.0272732	-0.193752	0	-0.313913	0	0	-0.100134	0.0291014	-0.041471	0.810673	-0.647692	0.922388	1.39993	1.5708	0	0	0.640691	-0.242393	0.755748	1.34259	1.5708	0	0
2.16	0.650868	1.48365	0.931386	0.601909	-0.30876	1.01255	0.591725	-0.0712577	0.0478821	0.825749	-0.189178	0	0	-0.226522	-0.0277796	-0.195058	0	-0.314719	0	0	-0.0985001	0.030436	-0.0427354	0.81595	-0.646817	0.921468	1.39923	1.5708	0	0	0.648067	-0.242436	0.756701	1.33983	1.5708	0	0
2.17	0.612468	1.47932	0.972799	0.602093	-0.30662	1.01171	0.60087	-0.0749436	0.0383013	0.802714	-0.189244	0	0	-0.224027	-0.0282492	-0.19569	0	-0.315497	0	0	-0.0965032	0.0313669	-0.0438882	0.820521	-0.646348	0.920067	1.39888	1.5708	0	0	0.655743	-0.242444	0.758518	1.33683	1.5708	0	0
